<?xml version="1.0" encoding="UTF-8" standalone="no"?>
<svg
   xmlns:dc="http://purl.org/dc/elements/1.1/"
   xmlns:cc="http://creativecommons.org/ns#"
   xmlns:rdf="http://www.w3.org/1999/02/22-rdf-syntax-ns#"
   xmlns:svg="http://www.w3.org/2000/svg"
   xmlns="http://www.w3.org/2000/svg"
   xmlns:xlink="http://www.w3.org/1999/xlink"
   xmlns:sodipodi="http://sodipodi.sourceforge.net/DTD/sodipodi-0.dtd"
   xmlns:inkscape="http://www.inkscape.org/namespaces/inkscape"
   version="1.1"
   id="Ebene_1"
   x="0px"
   y="0px"
   width="320px"
   height="320px"
   viewBox="0 0 320 320"
   enable-background="new 0 0 320 320"
   xml:space="preserve"
   inkscape:version="0.48.2 r9819"
   sodipodi:docname="icon.svg"><metadata
     id="metadata2994"><rdf:RDF><cc:Work
         rdf:about=""><dc:format>image/svg+xml</dc:format><dc:type
           rdf:resource="http://purl.org/dc/dcmitype/StillImage" /><dc:title>Rounded Corners</dc:title></cc:Work></rdf:RDF></metadata><defs
     id="defs2992"><linearGradient
       id="linearGradient3801"><stop
         style="stop-color:#ffffff;stop-opacity:1;"
         offset="0"
         id="stop3803" /><stop
         style="stop-color:#e6e6e6;stop-opacity:1;"
         offset="1"
         id="stop3805" /></linearGradient><linearGradient
       id="linearGradient3793"><stop
         style="stop-color:#000000;stop-opacity:1;"
         offset="0"
         id="stop3795" /><stop
         style="stop-color:#ffffff;stop-opacity:0;"
         offset="1"
         id="stop3797" /></linearGradient><radialGradient
       inkscape:collect="always"
       xlink:href="#linearGradient3801"
       id="radialGradient3807"
       cx="160"
       cy="160"
       fx="160"
       fy="160"
       r="150"
       gradientUnits="userSpaceOnUse"
       spreadMethod="pad" /></defs><sodipodi:namedview
     pagecolor="#ffffff"
     bordercolor="#666666"
     borderopacity="1"
     objecttolerance="10"
     gridtolerance="10"
     guidetolerance="10"
     inkscape:pageopacity="0"
     inkscape:pageshadow="2"
     inkscape:window-width="1280"
     inkscape:window-height="697"
     id="namedview2990"
     showgrid="false"
     inkscape:zoom="1.4142136"
     inkscape:cx="34.380693"
     inkscape:cy="136.73986"
     inkscape:window-x="0"
     inkscape:window-y="0"
     inkscape:window-maximized="1"
     inkscape:current-layer="Ebene_1" /><title
     id="title2986">Rounded Corners</title><path
     d="M113.184891,10.000000L206.815109,10.000000C236.526733,10.000000,251.382538,10.000000,267.374176,15.056519C284.834381,21.411518,298.588470,35.165600,304.943481,52.625816C310.000000,68.617462,310.000000,83.473274,310.000000,113.184891L310.000000,206.815109C310.000000,236.526733,310.000000,251.382538,304.943481,267.374176C298.588470,284.834412,284.834412,298.588470,267.374176,304.943481C251.382538,310.000000,236.526733,310.000000,206.815109,310.000000L113.184891,310.000000C83.473274,310.000000,68.617462,310.000000,52.625832,304.943481C35.165611,298.588470,21.411524,284.834412,15.056521,267.374176C10.000000,251.382538,10.000000,236.526733,10.000000,206.815109L10.000000,113.184891C10.000000,83.473274,10.000000,68.617462,15.056520,52.625832C21.411522,35.165607,35.165611,21.411518,52.625835,15.056519C68.617462,10.000000,83.473274,10.000000,113.184891,10.000000L113.184891,10.000000"
     id="path2988"
     style="fill:url(#radialGradient3807);fill-opacity:1;fill-rule:nonzero;opacity:1" /><rect
     style="fill:#0066ff;fill-rule:nonzero"
     id="rect2998"
     width="240"
     height="12"
     x="40"
     y="248.2449"
     ry="5" /><rect
     y="208.2449"
     x="40"
     height="12"
     width="240"
     id="rect3000"
     style="fill:#0066ff;fill-rule:nonzero"
     ry="5" /><rect
     style="fill:#0066ff;fill-rule:nonzero"
     id="rect3002"
     width="240"
     height="12"
     x="40"
     y="168.2449"
     rx="5" /><rect
     y="128.2449"
     x="40"
     height="12"
     width="240"
     id="rect3004"
     style="fill:#0066ff;fill-rule:nonzero"
     ry="5" /><rect
     style="fill:#0066ff;fill-rule:nonzero"
     id="rect3006"
     width="240"
     height="12"
     x="40"
     y="88.244896"
     ry="5" /><rect
     y="48.244896"
     x="40"
     height="12"
     width="240"
     id="rect3008"
     style="fill:#0066ff;fill-rule:nonzero"
     ry="5" /><g
     style="font-size:60.36209868999999628px;font-style:normal;font-weight:normal;line-height:125%;letter-spacing:0px;word-spacing:0px;fill:#c83737;fill-opacity:1;stroke:none;font-family:Sans"
     id="text3010"><path
       d="m 156.16842,51.184212 5.6,0 c 16.89815,2.01e-4 28.04902,0.687919 33.45263,2.063158 7.76129,1.965109 14.58935,5.747561 20.48421,11.347368 4.42092,4.126499 7.90863,9.972107 10.46316,17.536841 2.55424,7.466829 3.83143,16.21068 3.83158,26.231581 l 0,15.17894 -14.58948,0 0,-6.33684 c -1.3e-4,-6.68056 -1.42469,-12.32967 -4.27368,-16.94737 -2.751,-4.715628 -6.87731,-8.301589 -12.37895,-10.75789 -7.17203,-3.143694 -15.12992,-4.715622 -23.87368,-4.715789 l -4.12632,0 0,123.052629 c -8e-5,11.88775 -1.57201,21.17195 -4.71578,27.85263 -3.14394,6.58246 -8.54745,11.88772 -16.21053,15.91579 -7.66322,3.92982 -16.01408,5.89473 -25.05263,5.89473 -10.7088,0 -19.20704,-2.99649 -25.494737,-8.98947 -6.189482,-6.09122 -9.284216,-14.0491 -9.284211,-23.87368 -5e-6,-10.31575 3.733324,-18.96136 11.199998,-25.93684 7.46664,-7.07363 17.24207,-10.61047 29.32632,-10.61053 7.6631,6e-5 16.21046,2.25971 25.6421,6.77895 l 0,-143.684208"
       style="font-size:301.81051635999995142px;fill:#c83737"
       id="path3015" /></g></svg>